<?xml version="1.0" encoding="UTF-8"?>
<svg width="115px" height="127px" viewBox="0 0 115 127" version="1.1" xmlns="http://www.w3.org/2000/svg" xmlns:xlink="http://www.w3.org/1999/xlink">
    <!-- Generator: Sketch 64 (93537) - https://sketch.com -->
    <title>Combined Shape</title>
    <desc>Created with Sketch.</desc>
    <defs>
        <linearGradient x1="23.5473976%" y1="5.99078362%" x2="86.2079412%" y2="95.2419958%" id="linearGradient-1">
            <stop stop-color="#2196F3" offset="0%"></stop>
            <stop stop-color="#66C3FF" offset="100%"></stop>
        </linearGradient>
    </defs>
    <g id="Page-1" stroke="none" stroke-width="1" fill="none" fill-rule="evenodd">
        <g id="HD-Desktop" transform="translate(-655.000000, -443.000000)" fill="url(#linearGradient-1)">
            <g id="Group" transform="translate(655.000000, 443.000000)">
                <path d="M27.5,72 C42.6878306,72 55,84.3121694 55,99.5 C55,114.687831 42.6878306,127 27.5,127 C12.3121694,127 0,114.687831 0,99.5 C0,84.3121694 12.3121694,72 27.5,72 Z M87.5,0 C102.687831,-2.78995922e-15 115,12.3121694 115,27.5 L115,95.5 C115,110.687831 102.687831,123 87.5,123 C72.3121694,123 60,110.687831 60,95.5 L60,27.5 C60,12.3121694 72.3121694,2.78995922e-15 87.5,0 Z" id="Combined-Shape"></path>
            </g>
        </g>
    </g>
</svg>